<?xml version="1.0" encoding="UTF-8"?><svg id="Capa_2" xmlns="http://www.w3.org/2000/svg" viewBox="0 0 950.02 540.56"><g id="Capa_1-2"><polygon points="772.01 309.3 772 309.3 772 308.3 772.01 309.3"/><path d="M542.07,298.04c-40.89,7.65-53.71-30.14-57.71-52.36,0-.01,0-.03,0-.05-.36-2.87-.77-5.73-1.24-8.58-9.29-56.27-41.36-108.51-92.84-141.87C291.42,31.15,158.13,61.62,96.93,162.23c-59.4,97.64-29.66,225.23,67.38,286.38,60.05,37.84,131.93,41.49,192.81,16.09,22.04-5.22,55.43-6.5,66.19,28.72-.7.78-1.44,1.54-2.21,2.31-94.05,64.94-212.08,55.51-301.54-3.75C-8.95,406.85-40.44,232.8,57.4,106.08,130.17,11.83,285.2-29.56,391.99,23.14c105.25,51.95,159.53,142.23,150.08,274.9Z"/><circle cx="493.43" cy="406.85" r="46.57"/><path d="M449.01,343.36l-.41,2.71s-10.66,54.44-86.95,21.92h-.01s-162.4-102.36-162.4-102.36c-5.51-3.47-9.72-8.22-12.48-13.61,0,0,10.88-55.59,89.4-20.85l162.8,102.62c4.09,2.58,7.45,5.85,10.05,9.58Z"/><path d="M603.66,504.07l2.53,1.05s52.07,19.14,63.85-62.96h0s-3.24-191.95-3.24-191.95c-.11-6.51-1.99-12.57-5.16-17.73,0,0-53.17-19.54-64.21,65.61l3.26,192.41c.08,4.83,1.14,9.41,2.97,13.56Z"/><path d="M950.02,430.72c0,10.82-2.61,28.61-4.83,35.45-9.31,28.84-25.34,37.99-38.29,40.26-11.29,1.97-20.2-1.31-20.2-1.31l-2.52-1.05c-5.81-2.41-3.17-30.73-3.2-35.22.05,7.19-7.73,16.6-12.49,21.31-5.98,5.91-13.47,9.75-21.21,12.82-19.17,7.6-41.31,8.26-61.62,6.65-6.01-.48-12.37-1.34-19.18-2.56-42.55-7.63-63.67-47.04-61.46-78.32l-2.21-130.64c6.31-48.67,26.61-62.23,42.43-66.6,14.75-4.07,24.92-.94,24.92-.94,3.17,5.16,1.92,13.15,2.02,19.66,0,0,2.49,147.33,2.49,147.35-.02.29.12,3.11.12,7.42,0,29.03,19.84,44.56,51.69,38.44h.04c50.81-19.76,50.9-54.12,51.17-76.2.33-28.02-1.74-38.17-.26-67.33.65-12.85,6.97-35.65,15.08-45.65,9.67-11.93,25.41-21.65,40.99-23.47,2.9-.34,13.94-1.09,14.07,1.83.28,6.26-.43,11.54-.33,17.65,1.02,64.22,1.82,116.24,2.78,180.46Z"/></g></svg>