<?xml version="1.0" encoding="UTF-8"?><svg id="Capa_2" xmlns="http://www.w3.org/2000/svg" viewBox="0 0 543.13 540.56"><defs><style>.cls-1{fill:#f2f2f2;}</style></defs><g id="Capa_1-2"><path class="cls-1" d="M542.07,298.04c-40.89,7.65-53.71-30.14-57.71-52.36,0-.01,0-.03,0-.05-.36-2.87-.77-5.73-1.24-8.58-9.29-56.27-41.36-108.51-92.84-141.87C291.42,31.15,158.13,61.62,96.93,162.23c-59.4,97.64-29.66,225.23,67.38,286.38,60.05,37.84,131.93,41.49,192.81,16.09,22.04-5.22,55.43-6.5,66.19,28.72-.7.78-1.44,1.54-2.21,2.31-94.05,64.94-212.08,55.51-301.54-3.75C-8.95,406.85-40.44,232.8,57.4,106.08,130.17,11.83,285.2-29.56,391.99,23.14c105.25,51.95,159.53,142.23,150.08,274.9Z"/><circle class="cls-1" cx="493.43" cy="406.85" r="46.57"/><path class="cls-1" d="M449.01,343.36l-.41,2.71s-10.66,54.44-86.95,21.92h-.01s-162.4-102.36-162.4-102.36c-5.51-3.47-9.72-8.22-12.48-13.61,0,0,10.88-55.59,89.4-20.85l162.8,102.62c4.09,2.58,7.45,5.85,10.05,9.58Z"/></g></svg>